# xmcd
#
# Track frame offsets:
# 150
# 23585
# 44800
# 67630
# 95448
# 129543
# 154423
# 178450
# 208573
#
# Disc length: 3006 seconds
#
#
# Revision: 5
# Processed by: cddbd v1.5.2PL0 Copyright (c) Steve Scherf et al.
# Submitted via: FreeRIP 2.944 
#
DISCID=7b0bbc09
DTITLE=Grateful Dead / Built To Last
DYEAR=1989
DGENRE=Rock
TTITLE0=Foolish Heart
TTITLE1=Just A Little Light
TTITLE2=Built To Last
TTITLE3=Blow Away
TTITLE4=Victim Or The Crime
TTITLE5=We Can Run
TTITLE6=Standing On The Moon
TTITLE7=Picasso Moon
TTITLE8=I Will Take You Home
EXTD=Billboard # 27\nBuilt to Last is the thirteenth and final studio album by the Grateful Dead. It was recorded between February 1 and October 20, 1989 and originally released on October 31, 1989.\nThe Grateful Dead were an American psychedelia-influen
EXTD=ced rock band formed in 1965 in San Francisco. \n
EXTT0=
EXTT1=
EXTT2=
EXTT3=
EXTT4=
EXTT5=
EXTT6=
EXTT7=
EXTT8=
PLAYORDER=
.
